<svg width="44" height="55" viewBox="0 0 44 55" fill="none" xmlns="http://www.w3.org/2000/svg">
<path fill-rule="evenodd" clip-rule="evenodd" d="M33.9176 36.7985C38.2369 33.3157 41 27.9805 41 22C41 11.5066 32.4934 3 22 3C11.5066 3 3 11.5066 3 22C3 27.9805 5.76312 33.3157 10.0824 36.7985C12.0888 32.2079 16.6698 29 22 29C27.3302 29 31.9112 32.2079 33.9176 36.7985ZM34.8273 39.8755C40.3823 35.8823 44 29.3636 44 22C44 9.84974 34.1503 0 22 0C9.84974 0 0 9.84974 0 22C0 29.3636 3.61772 35.8823 9.17274 39.8755C9.0591 40.5668 9 41.2765 9 42C9 49.1797 14.8203 55 22 55C29.1797 55 35 49.1797 35 42C35 41.2765 34.9409 40.5668 34.8273 39.8755ZM31.3804 38.5268C29.9688 34.716 26.3016 32 22 32C17.6984 32 14.0312 34.716 12.6196 38.5268C15.3871 40.1009 18.5885 41 22 41C25.4115 41 28.6129 40.1009 31.3804 38.5268ZM12.0077 41.6051C15.0061 43.1364 18.4022 44 22 44C25.5978 44 28.9939 43.1364 31.9923 41.6051C31.9974 41.7361 32 41.8677 32 42C32 47.5229 27.5228 52 22 52C16.4772 52 12 47.5229 12 42C12 41.8677 12.0026 41.7361 12.0077 41.6051ZM21.5 26C23.9853 26 26 23.9853 26 21.5C26 19.0147 23.9853 17 21.5 17C19.0147 17 17 19.0147 17 21.5C17 23.9853 19.0147 26 21.5 26ZM21.5 29C25.6421 29 29 25.6421 29 21.5C29 17.3579 25.6421 14 21.5 14C17.3579 14 14 17.3579 14 21.5C14 25.6421 17.3579 29 21.5 29Z" fill="#1C85E8"/>
</svg>
